# xmcd
#
# Track frame offsets:
#	150
#	14217
#	30042
#	44070
#	58572
#	71085
#	84752
#	98475
#	111560
#	124077
#	140055
#
# Disc length: 2060 seconds
#
# Revision: 0
# Processed by: cddbd v1.5.2PL0 Copyright (c) Steve Scherf et al.
# Submitted via: EasyCDDAExtractor 16.0.9.1
#
DISCID=96080a0b
DTITLE=Vern Gosdin - 10 Year of Greatest Hits (Newly Recorded)
DYEAR=1900
DGENRE=Country
TTITLE0=If You're Gonna Do Me Wrong (Do It Right)
TTITLE1=Slow Burnin' Memory
TTITLE2=This Ain't My First Rodeo
TTITLE3=Today My World Slipped Away
TTITLE4=Way Down Deep
TTITLE5=Is It Raining at Your House
TTITLE6=Friday Night Feeling
TTITLE7=Till The End
TTITLE8=I Can Tell by the Way You Dance (You're Gonna Love Me Tonight)
TTITLE9=Time Stood Still
TTITLE10=Was It Just The Wine
EXTD=
EXTT0=
EXTT1=
EXTT2=
EXTT3=
EXTT4=
EXTT5=
EXTT6=
EXTT7=
EXTT8=
EXTT9=
EXTT10=
PLAYORDER=
